<svg xmlns="http://www.w3.org/2000/svg" viewBox="0 0 3036.59 3749.01"><defs><style>.cls-1{fill:#003153;}.cls-2,.cls-5{fill:none;}.cls-2{stroke:#eb5e28;stroke-miterlimit:10;stroke-width:187.41px;opacity:0.5;}.cls-3{fill:#eb5e28;}.cls-4{fill:#f8f8f9;}</style></defs><title>Vegeloper</title><g id="Layer_2" data-name="Layer 2"><g id="Canvas"><g id="Vegeloper"><path class="cls-1" d="M2503.73,1034.18l-2,70.24-45.8,1621.88a1245.25,1245.25,0,0,1-12.37,175.56c-15,81.93-33.79,159.37-57.29,231.56-90.67,251.57-262.82,446.1-473.75,529.61-22.31,7.42-45.51,14-69.6,19.56a632.14,632.14,0,0,0,102.86-28.34c-146.47,61.47-303.13,94.76-465.88,94.76C662.6,3749,0,2909.73,0,1874.5S662.6,0,1479.89,0c172.22,0,337.58,37.26,491.33,105.77a.7.7,0,0,1,.47.23,1301.64,1301.64,0,0,1,123.81,63.42c106.17,72.33,197.49,175.11,266.67,299.17C2451.36,628.41,2503.73,823.53,2503.73,1034.18Z"/><path class="cls-2" d="M2942.68,1897.84c-13.64,867-723,1561.19-1590.5,1563.79-9.81.07-19.48,0-29.3-.18-42.09-.57-83.84-2.9-125.09-6.61C837.67,3401.51,564.19,3090.9,570,2719.92A724.35,724.35,0,0,1,625,2453.48c0-.07.06-.15.13-.23q39.61-64.93,72.82-133.92C795,2118.45,850.79,1894.1,854.55,1656.78c4.25-270.86-59.86-527-176.57-751.84-6.08-11.68-12.31-23.27-18.6-34.71a372.52,372.52,0,0,1-35.12-164.48c2.48-158.86,103.58-293.21,244.3-346a.75.75,0,0,1,.37-.18q25.05-7.9,50.53-14.95a1600.88,1600.88,0,0,1,453.28-58C2253.56,299.66,2956.48,1021,2942.68,1897.84Z"/><path class="cls-3" d="M1422.26,225.34a1567.25,1567.25,0,0,0-451.28,66c-16.79,5-33.58,10.34-50.14,16a.76.76,0,0,0-.38.15C781,363.57,682.23,502,682.23,664a386.57,386.57,0,0,0,37.63,167.09q9.67,17.31,19,35.08c119.94,227.43,187.93,487.48,187.93,763.56,0,242-52.25,471.51-145.88,677.66q-32,70.73-70.46,137.63c-.07.08-.15.15-.15.23a752.46,752.46,0,0,0-50.67,272.41c0,378.11,277.66,690.55,637.7,739.42,41.15,3.23,82.91,4.88,124.89,4.88,9.74,0,19.49-.08,29.23-.3,865.29-15.82,1562-734.18,1562-1618C3013.48,949.84,2301.11,225.34,1422.26,225.34ZM1203.82,3048.63c-128.19,0-232.16-105.62-232.16-236.05s104-236.13,232.16-236.13S1436,2682.15,1436,2812.58,1332.08,3048.63,1203.82,3048.63Z"/><path class="cls-4" d="M1203.82,2576.45c-128.19,0-232.16,105.7-232.16,236.13s104,236.05,232.16,236.05S1436,2943,1436,2812.58,1332.08,2576.45,1203.82,2576.45Zm-.3,377a143.18,143.18,0,1,1,143.17-143.17A143.16,143.16,0,0,1,1203.52,2953.43Z"/><circle class="cls-5" cx="1202.63" cy="2824.88" r="231.65"/><ellipse class="cls-1" cx="1203.52" cy="2811.24" rx="143.18" ry="142.19"/></g></g></g></svg>