<svg xmlns="http://www.w3.org/2000/svg" viewBox="0 0 363.32 43.05"><title>Text</title><g id="Layer_2" data-name="Layer 2"><g id="Layer_1-2" data-name="Layer 1"><path d="M1.39.65a1.6,1.6,0,0,0-1.3,2.1c.3.9,1.9,9.3,3.7,18.7s3.8,18,4.5,19.2c1.2,2,2.3,2.3,7.4,2.3,3.3,0,6-.3,6-.8s.9-6.1,2-12.7,2-13.3,2-14.8.4-2.6,1-2.2,1,1.8,1,3.3c0,6,3.4,24.4,4.8,25.8,1,1.1,3.1,1.4,7,1.2l5.6-.3,4-20.2c2.2-11.1,3.8-20.5,3.5-20.7-1.1-1.1-6.4-1.61-7.7-.8-.8.6-2.4,7.3-4,17.1-1.4,8.8-2.7,16-2.8,15.8s-1.3-6.6-2.4-14.2c-3-20.51-2.1-18.5-9-18.5s-5.9-2.11-9.1,19c-1.2,8-2.4,14-2.5,13.5s-1.4-7.7-2.8-15.8-3-15.4-3.6-16.2C7.49-.06,5-.26,1.39.65Z"/><path d="M99,.65l-4.3.4V43h10c15.3,0,20.5-3.1,20.5-12,0-4.2-.5-5.4-3.4-8.4-1.9-2-3-3.6-2.3-3.6,1.4,0,4.2-5.2,4.2-7.9a10.14,10.14,0,0,0-4.9-8.4C115.89,1,105.89-.06,99,.65ZM111.79,8c2.2,1.2,2.6,5.9.7,7.8-.7.7-2.9,1.2-5,1.2h-3.8v-4.3c0-2.4.3-4.7.7-5C105.39,6.65,109.59,6.85,111.79,8Zm1.9,18c4.5,4.5,1.3,10-5.7,10h-4.3v-5.3c0-3,.3-5.7.7-6C105.79,23.15,111.79,24.05,113.69,26Z"/><path d="M129.79.85c-1.2.8-.8,4,2.4,20.1,2.2,10.8,4.4,19.8,5.3,20.6,1,1.1,3.1,1.4,7,1.2l5.7-.3.6-4c.4-2.2,1.5-9.4,2.5-16l1.8-12,2.2,14.7c1.2,8.1,2.7,15.5,3.4,16.3.8,1,3.1,1.5,7.1,1.5,3.3,0,5.9-.1,5.9-.3s1.8-9.4,4-20.7,4-20.6,4-20.6c0-.6-6.1-1.2-7.7-.8s-2.3,2.4-4.2,15.7c-1.3,8.4-2.5,15.9-2.8,16.7s-1.6-5.4-2.9-13.8-2.5-15.9-2.8-16.7c-.4-1.1-2.1-1.5-6-1.5-3,0-5.7.4-6,.8s-1.5,7.6-2.8,16S144,33,143.69,33s-1.2-3.9-1.8-8.8c-2.4-16.3-3.4-21.3-4.9-22.7C135.39-.26,131.89-.46,129.79.85Z"/><path d="M234.29.85c-1.5.6-3.7,5.9-8.7,21-7.3,21.7-7.3,21.6-.8,20.9,2.8-.3,3.4-.8,4.7-4.6l1.4-4.2h13.4l1.9,4.2c1.7,3.7,2.5,4.3,5.4,4.6,1.8.2,3.8-.1,4.3-.6.9-.9-10.4-38.6-12.1-40.5C242.59.45,236.39-.16,234.29.85Zm5.7,16.8c.9,3.8,1.7,7.1,1.7,7.5s-1.8.8-4,.8-4-.3-4-.8c0-1.7,3.5-14.2,4-14.2C238,11,239,14,240,17.65Z"/><path d="M257.49.65a2.12,2.12,0,0,0-1.8,1.7c0,1.6,8.7,33.3,10.2,36.9,1.2,3.1,3.6,4,9.8,3.5l4.3-.3,5.7-20.5,5.6-20.5-2.5-.7c-5.9-1.71-6.4-1-10.6,16.7-2.1,9-4.2,16.2-4.7,15.9a4.1,4.1,0,0,1-.8-2.7c0-4.3-7.1-28.2-8.7-29.5S260.69-.26,257.49.65Z"/><path d="M336.89.65l-5.2.4.2,20.7.3,20.7,4.8.3,4.7.3v-8c0-7.8.1-8.1,2.3-8.1,3,0,5.1,2.4,6.7,7.5,1.9,6.3,3.7,8.5,6.8,8.5,4,0,7-2.3,5.4-4.2a26.83,26.83,0,0,1-2.7-5.8,24.17,24.17,0,0,0-3.3-6.3c-1.6-1.7-1.5-1.9.5-3.5,3-2.4,4.3-5.5,4.3-9.9C361.59,3.15,354-.76,336.89.65Zm13.6,8.5c.7.7,1.2,2.9,1.2,5,0,4.2-1.9,5.8-6.9,5.8h-3.1V8h3.8C347.59,8,349.79,8.45,350.49,9.15Z"/><path d="M59.69,21c0,18.7.1,20,1.9,21,1.1.5,6.5,1,12,1,8.8,0,10.4-.3,12.1-2a6.92,6.92,0,0,0,2-4c0-1.9-.7-2-9.6-2h-9.5l.3-4.8.3-4.7,6.8-.3,6.7-.3V18h-14V9h8.5c8.2,0,8.5-.1,9.1-2.5,1.3-5.2.5-5.5-13.6-5.5h-13Z"/><path d="M187.69,20.35c0,23.7-.7,22.6,14.6,22.6,10.9,0,13.4-1.1,13.4-5.8,0-2.1-.4-2.2-9-2.2h-9V25h14.1l-.3-3.3-.3-3.2-6.7-.3-6.8-.3V9h17V1h-27Z"/><path d="M296.69,20.35c0,23.6-.7,22.6,14,22.6,10.6,0,14-1.3,14-5.5,0-2.4-.2-2.4-9.2-2.7l-9.3-.3v-9l7-.5,7-.5v-6l-7-.5-7-.5-.3-4.2-.3-4.2,8.8-.3,8.8-.3.3-3.8.3-3.7h-27.1Z"/></g></g></svg>