<svg xmlns="http://www.w3.org/2000/svg" viewBox="0 0 181.89 127.89"><title>Asset 3</title><g id="Layer_2" data-name="Layer 2"><g id="Layer_1-2" data-name="Layer 1"><path d="M6.5,1.33c-6.6,2.8-8,9.4-3.2,14.4,3.7,3.8,16.8,10.4,30.2,15.2,8.9,3.2,10.3,3.9,7.4,3.9a27.59,27.59,0,0,1-8.3-1.5A29.38,29.38,0,0,0,21,32.13c-6,.3-7.3.7-10,3.3-1.6,1.6-3,3.3-3,3.8s-1.8,3.6-4,6.9c-3.5,5.3-4,6.7-4,11.7a25.69,25.69,0,0,0,2,9.9c4.2,9.2,17.8,20.5,34.7,28.9,7.4,3.7,8.3,4.6,6,6-4.9,3-6.3,12.1-2.5,16.8,5.5,7,24.2,10.6,37.8,7.1a59.33,59.33,0,0,0,19.5-9.1c2.2-1.7,4.8-2.4,10.2-2.7,8.2-.6,16.9-4.2,20.3-8.5,2.8-3.5,2.7-10.2-.2-13.8-1.7-2.2-2.2-4.2-2.3-10.4a42.07,42.07,0,0,0-6.6-22.4,37.45,37.45,0,0,1-2.9-5.2c0-.6,6.5,2,24.4,10,23.1,10.1,36.5,13.5,40,9.9,2.4-2.3,2-4-2-7.2-7.7-6.4-25.7-13.1-55.9-20.8l-15-3.8-7.3-6.9C82.5,19.33,58,6.43,35.8,1.93,24.9-.37,10.9-.67,6.5,1.33ZM32,9.83a125.51,125.51,0,0,1,34.6,13.3c9.6,5.5,18.8,11.8,18.1,12.5C83.5,36.83,41.2,24,27,18.23,16.8,14,9,9.93,9,8.73,9,7.23,23.3,7.93,32,9.83Zm5.7,35.3c3.9,4.2,5.4,7,6.9,13.5,1.1,4.9,1.1,5.3-.5,5.3-4.8,0-28.4-17.1-26.4-19.1,1.4-1.3,7.6-2.7,12.4-2.8C34,41.93,35,42.43,37.7,45.13Zm16.1-1.6c2.5.5,3.6,1.7,5.7,6a54.55,54.55,0,0,0,7,10.2l4.4,4.9-4.6-.8c-5.8-1.1-8.1-.4-9.3,2.7-.8,2.1-1.3,2.3-3,1.4s-2-2.1-2-7.3a31,31,0,0,0-2.4-12C47,42.33,47.1,42.23,53.8,43.53Zm33.8,11c9.3,4.6,16.3,9.7,19.3,14,2.8,4,2.7,5-.8,6.2-2.6.9-3.9.3-15.6-7.5C78.6,59.23,68,50.33,68,48,68,46.63,78.6,50.13,87.6,54.53Zm13.2-3.7c.3.9-.4.8-2.7-.3a11.85,11.85,0,0,1-3.1-2C95,47.53,100.4,49.73,100.8,50.83Zm-83.5,7.9c8.5,7.3,25.3,15.5,41.1,19.9,4.8,1.3,7.7,3.1,14.1,8.5a95.88,95.88,0,0,0,14.2,10.1c9.5,4.9,8.7,5.4-5.5,3.7-29.3-3.7-64.9-23-72.3-39.3-2.2-4.8-2.3-7-.8-9.9,1.1-2,1.1-2,2.8.4A37.61,37.61,0,0,0,17.3,58.73ZM117,80.53c0,2.7-.3,2.8-3.1,1.3-2-1-2-1.2-.3-3C115.6,76.53,117,77.23,117,80.53ZM103.4,89c2.5,2.8,4.4,5.5,4.1,5.9-1.1,1.8-17.6-4.7-22.5-8.8L82.5,84l8.2-.1h8.1Zm20.1,11.4c0,2.2-.8,3.2-3.8,4.8-4.1,2.1-10.3,3.8-11.1,2.9-.3-.2,1.2-1.4,3.4-2.4a24.92,24.92,0,0,0,6.7-5.3C122,96.53,123.5,96.53,123.5,100.43Zm-56.1,7.1c6.1,1.4,14.4,3.5,18.3,4.7,6.8,1.9,7.1,2.1,5.2,3.5a55.48,55.48,0,0,1-8.8,3.8c-11.9,4.2-29.2,2.9-35.7-2.8-4-3.6-4.3-6-.9-9.3C48.7,104.13,53.1,104.23,67.4,107.53Z"/></g></g></svg>