<?xml version="1.0" encoding="utf-8"?>
<!-- Generator: Adobe Illustrator 24.0.1, SVG Export Plug-In . SVG Version: 6.00 Build 0)  -->
<svg version="1.1" id="Layer_1" xmlns="http://www.w3.org/2000/svg" xmlns:xlink="http://www.w3.org/1999/xlink" x="0px" y="0px"
	 viewBox="0 0 3036.6 3749" style="enable-background:new 0 0 3036.6 3749;" xml:space="preserve">
<style type="text/css">
	.st0{fill:#003153;}
	.st1{opacity:0.5;fill:none;stroke:#EB5E28;stroke-width:179.7517;stroke-miterlimit:10;enable-background:new    ;}
	.st2{fill:#EB5E28;}
	.st3{fill:#F8F8F9;}
	.st4{fill:none;}
</style>
<title>Vegeloper</title>
<g id="Layer_2_1_">
	<g id="Canvas">
		<g id="Vegeloper">
			<path class="st0" d="M2463,1068.5l-1.9,67.4l-43.9,1555.6c0,56.3-3.9,112.6-11.9,168.4c-14.4,78.6-32.4,152.9-54.9,222.1
				c-87,241.3-252.1,427.9-454.4,508c-21.4,7.1-43.7,13.4-66.8,18.8c33.6-6.3,66.6-15.4,98.7-27.2c-140.5,59-290.7,90.9-446.8,90.9
				c-783.9,0-1419.4-805-1419.4-1797.9S697.1,76.6,1481,76.6c165.2,0,323.8,35.7,471.3,101.4c0.2,0,0.3,0.1,0.5,0.2
				c40.6,18.1,80.3,38.5,118.8,60.8c101.8,69.4,189.4,168,255.8,286.9C2412.8,679.3,2463,866.5,2463,1068.5z"/>
			<path class="st1" d="M2884,1896.9c-13.1,831.6-693.5,1497.4-1525.5,1499.9c-9.4,0.1-18.7,0-28.1-0.2c-40.4-0.5-80.4-2.8-120-6.3
				c-345.4-51.2-607.7-349.1-602.1-704.9c1.3-87.8,19.2-174.5,52.8-255.6c0-0.1,0.1-0.1,0.1-0.2c25.3-41.5,48.6-84.3,69.8-128.4
				c93.1-192.7,146.6-407.9,150.2-635.5c4.1-259.8-57.4-505.5-169.4-721.1c-5.8-11.2-11.8-22.3-17.8-33.3
				c-23.1-49.3-34.6-103.3-33.7-157.8c2.4-152.4,99.3-281.2,234.3-331.9c0.1-0.1,0.2-0.1,0.4-0.2c16-5.1,32.2-9.8,48.5-14.3
				c141.5-39.2,287.9-58,434.8-55.6C2223,364,2897.2,1055.9,2884,1896.9z"/>
			<path class="st2" d="M1425.7,292.7c-146.6-0.1-292.4,21.2-432.8,63.3c-16.1,4.8-32.2,9.9-48.1,15.3c-0.1,0-0.3,0.1-0.4,0.1
				c-133.8,53.8-228.5,186.6-228.5,341.9c-0.1,55.4,12.2,110.2,36.1,160.3c6.2,11.1,12.3,22.3,18.2,33.6
				c115,218.1,180.3,467.6,180.3,732.4c0,232.1-50.1,452.2-139.9,650c-20.5,45.2-43,89.2-67.6,132c-0.1,0.1-0.1,0.1-0.1,0.2
				c-32.2,83.3-48.7,171.9-48.6,261.3c0,362.7,266.3,662.3,611.6,709.2c39.5,3.1,79.5,4.7,119.8,4.7c9.3,0,18.7-0.1,28-0.3
				c829.9-15.2,1498.2-704.2,1498.2-1551.9C2951.9,987.6,2268.6,292.7,1425.7,292.7z M1216.2,3000.7c-123,0-222.7-101.3-222.7-226.4
				c0-125.1,99.8-226.5,222.7-226.5s222.7,101.4,222.7,226.5C1438.9,2899.3,1339.2,3000.7,1216.2,3000.7z"/>
			<path class="st3" d="M1216.2,2547.8c-123,0-222.7,101.4-222.7,226.5c0,125.1,99.8,226.4,222.7,226.4s222.7-101.3,222.7-226.4
				C1438.9,2649.2,1339.2,2547.8,1216.2,2547.8z M1215.9,2909.4c-75.8,0-137.3-61.5-137.3-137.3s61.5-137.3,137.3-137.3
				c75.8,0,137.3,61.5,137.3,137.3c0,0,0,0,0,0C1353.2,2847.9,1291.7,2909.3,1215.9,2909.4L1215.9,2909.4z"/>
			<circle class="st4" cx="1215.1" cy="2786" r="222.2"/>
			<ellipse class="st0" cx="1215.9" cy="2773" rx="137.3" ry="136.4"/>
		</g>
	</g>
</g>
</svg>
