<svg xmlns="http://www.w3.org/2000/svg" viewBox="0 0 472.01 73"><defs><style>.cls-1{fill:#eb5e28;}</style></defs><title>WebWeaver-SVG</title><g id="Layer_2" data-name="Layer 2"><g id="Layer_1-2" data-name="Layer 1"><path d="M112.63,36.5c0,35.8,0,36.5,2,36.5s2-.7,2-36.5,0-36.5-2-36.5S112.63.7,112.63,36.5Z"/><path d="M142.63,19.2c0,.7,2,8.7,4.3,17.8,4.2,15.8,4.5,16.5,7,16.8,2.8.3,2.7.6,8.6-20.7,1.1-4,2.2-7.5,2.4-7.8s1.9,4.9,3.6,11.4c4.7,17.5,4.4,16.8,7.4,17.1,2.3.3,2.7-.2,3.6-3.5,6-22.4,8.1-30.6,8.1-31.4,0-.5-1.1-.9-2.4-.9-2.3,0-2.6.7-4.6,9.7-3.6,16-4.7,19.9-5.3,18.3-.3-.8-1.5-5.1-2.7-9.5-5.2-19.2-4.9-18.6-7.8-18.3-2.4.3-2.8,1.1-6.3,14.2-2.1,7.6-4,14.1-4.3,14.3s-1.6-4.9-3.1-11.4c-3.6-16.2-3.8-16.8-6.3-17.1C143.53,18,142.63,18.4,142.63,19.2Z"/><path d="M193.63,36V54h13c12.3,0,13-.1,13-2s-.7-2-11-2h-11V38h10c9.3,0,10-.1,10-2s-.8-2-9.7-2.2l-9.8-.3v-11l10.8-.3c9.9-.2,10.7-.4,10.7-2.2s-.7-2-13-2h-13Z"/><path d="M226.63,36V54h10.5c10.1,0,10.6-.1,13.6-2.8,2.5-2.3,3.2-3.6,3.3-7.1s-.4-4.7-2.7-6.7l-2.8-2.4,2.2-3c1.9-2.5,2.1-3.5,1.3-6.7-1.3-5.5-5.5-7.3-16.6-7.3h-8.8Zm18.8-12.4c1.7,1.2,2.2,2.4,2,4.7-.4,4-3.5,5.7-10.5,5.7h-5.3V22h5.8C241,22,244,22.6,245.43,23.6Zm2.3,16c2.4,2.1,2.4,5.5.2,8.3-1.4,1.7-3.3,2.3-9,2.8l-7.3.6V36.7l7.1.6C243.33,37.7,246.53,38.5,247.73,39.6Z"/><path d="M257.63,18.7c0,.5,1.5,6.6,3.4,13.8,6.1,23.6,5.4,21.7,8.4,21.3,2.5-.3,2.8-1,6.6-14.6,2.2-7.8,4.1-14,4.3-13.8a69.44,69.44,0,0,1,2.4,7.7c5.9,21.4,5.8,21,8.7,20.7,2.5-.3,2.8-1,6.9-16.8,2.4-9.1,4.3-17.1,4.3-17.8s-.9-1.2-2.2-1c-2.5.3-3,1.8-6.8,19.1-1.2,5.4-2.4,9.6-2.6,9.4s-2.2-6.7-4.3-14.3c-3.6-13-4-13.9-6.4-14.2-2.8-.3-2.5-.9-7.7,18.3-1.2,4.4-2.4,8.7-2.7,9.5-.6,1.6-1.7-2.1-5.3-18.3-2.1-8.9-2.4-9.7-4.6-9.7C258.73,18,257.63,18.3,257.63,18.7Z"/><path d="M308.63,36V54h13.6c12.4,0,13.5-.2,13.2-1.8s-1.8-1.7-11.1-2l-10.7-.3V38h10c9.3,0,10-.1,10-2s-.7-2-10-2h-10V22h10.5c9.8,0,10.5-.1,10.5-2s-.7-2-13-2h-13Z"/><path d="M351.53,20.7c-.6,1.5-3.7,9.7-6.9,18.1l-5.8,15.3,2.5-.3c2-.2,2.9-1.3,4.2-4.8l1.7-4.5,7.5-.3,7.6-.3,1.3,4.7c1.3,4.6,2.6,5.9,5.3,5.2,1.2-.2.1-4.1-4.8-17.8-5.8-16.2-6.5-17.5-8.9-17.8C353.13,17.9,352.43,18.4,351.53,20.7Zm6.7,12.5,2.3,6.8h-11.9l2.2-5.8c3.9-10.7,4-10.8,4.6-9.2C355.73,25.8,356.93,29.5,358.23,33.2Z"/><path d="M373.63,19.1c0,.6,2.8,8.8,6.1,18,5.9,16.1,6.3,16.9,8.8,16.9s3-.8,8.9-17.3c3.4-9.4,6.2-17.5,6.2-18s-1-.7-2.3-.7c-2,0-2.7,1.4-6.6,13.2-2.4,7.3-4.8,14.4-5.4,15.8-.8,2.2-1.6.6-6.1-13-4.5-13.2-5.6-15.5-7.4-15.8C374.63,18,373.63,18.4,373.63,19.1Z"/><path d="M409.63,36V54h13.5c12.8,0,13.5-.1,13.5-2s-.7-2-11-2h-11V38h10c9.3,0,10-.1,10-2s-.7-2-10-2h-10V22h10.5c9.8,0,10.5-.1,10.5-2s-.7-2-13-2h-13Z"/><path d="M443.63,36V54h2.5c2.4,0,2.5-.2,2.5-7.5V39h7.1c8.4,0,10.9,1.1,10.9,4.8a54.49,54.49,0,0,0,.6,6.4c.5,3,1.1,3.8,2.8,3.8,2.1,0,2.2-.4,1.8-6.3-.2-3.9-1.1-7.2-2.2-8.8-1.8-2.6-1.8-2.7.2-4.7,1.4-1.4,2.1-3.3,2.1-6.1,0-7.6-4.7-10.1-18.8-10.1h-9.5Zm22-12a7.38,7.38,0,0,1,2,4.5c0,4.7-3.1,6.5-11.5,6.5h-7.5V22h7.5C462.33,22,464,22.4,465.63,24Z"/><g id="Layer_2-2" data-name="Layer 2"><g id="Layer_1-2-2" data-name="Layer 1-2"><path class="cls-1" d="M2.93,8.24C0,9.5-.68,12.48,1.49,14.74c1.67,1.71,7.58,4.69,13.63,6.86,4,1.44,4.65,1.76,3.34,1.76a12.29,12.29,0,0,1-3.75-.68,13.23,13.23,0,0,0-5.23-.54c-2.71.14-3.3.32-4.51,1.49a5.53,5.53,0,0,0-1.36,1.72,17.4,17.4,0,0,1-1.8,3.11C.23,30.85,0,31.48,0,33.74a11.62,11.62,0,0,0,.9,4.47c1.9,4.15,8,9.25,15.67,13,3.34,1.67,3.74,2.08,2.7,2.71-2.21,1.36-2.84,5.46-1.13,7.58,2.49,3.16,10.93,4.79,17.07,3.21A26.64,26.64,0,0,0,44,60.64c1-.77,2.16-1.08,4.6-1.22,3.7-.27,7.63-1.89,9.16-3.83a5.5,5.5,0,0,0-.09-6.23c-.76-1-1-1.9-1-4.7a19.07,19.07,0,0,0-3-10.11,16.27,16.27,0,0,1-1.31-2.34c0-.27,2.93.9,11,4.51,10.43,4.56,16.48,6.09,18.06,4.47,1.08-1,.9-1.81-.91-3.25-3.47-2.89-11.6-5.91-25.23-9.39l-6.77-1.71-3.29-3.12c-8-7.36-19-13.18-29.07-15.21C11.24,7.47,4.92,7.34,2.93,8.24Zm11.51,3.84a56.46,56.46,0,0,1,15.62,6c4.33,2.48,8.49,5.32,8.17,5.64-.54.54-19.63-5.25-26-7.85C7.58,14,4.06,12.12,4.06,11.58S10.52,11.22,14.44,12.08ZM17,28a11.11,11.11,0,0,1,3.11,6.09c.5,2.21.5,2.39-.22,2.39-2.17,0-12.82-7.71-11.92-8.62.63-.58,3.43-1.22,5.6-1.26A3.57,3.57,0,0,1,17,28Zm7.26-.72c1.13.22,1.63.76,2.58,2.7A24.15,24.15,0,0,0,30,34.6l2,2.21-2.07-.36c-2.62-.5-3.66-.18-4.2,1.22-.36.95-.59,1-1.36.63s-.9-.95-.9-3.3a14,14,0,0,0-1.08-5.41C21.21,26.74,21.26,26.7,24.28,27.29Zm15.26,5c4.2,2.08,7.36,4.38,8.71,6.32s1.22,2.26-.36,2.8c-1.17.41-1.76.13-7-3.39S30.69,30.36,30.69,29.3C30.69,28.69,35.48,30.27,39.54,32.25Zm6-1.67c.13.41-.18.36-1.22-.13a5.35,5.35,0,0,1-1.4-.91C42.88,29.09,45.32,30.08,45.5,30.58ZM7.81,34.15c3.84,3.29,11.42,7,18.55,9,2.17.59,3.48,1.4,6.36,3.84a43.51,43.51,0,0,0,6.41,4.55c4.29,2.22,3.93,2.44-2.48,1.67C23.43,51.52,7.36,42.81,4,35.46,3,33.29,3,32.3,3.66,31c.49-.91.49-.91,1.26.18A17,17,0,0,0,7.81,34.15Zm45,9.84c0,1.22-.14,1.26-1.4.58-.9-.45-.9-.54-.14-1.35C52.18,42.18,52.81,42.5,52.81,44Zm-6.14,3.82c1.13,1.26,2,2.48,1.85,2.66-.49.82-7.94-2.12-10.15-4l-1.13-1,3.7,0h3.65ZM55.74,53c0,1-.36,1.44-1.71,2.16-1.85,1-4.65,1.72-5,1.31-.14-.09.54-.63,1.53-1.08a11.52,11.52,0,0,0,3-2.39c1.49-1.75,2.16-1.75,2.16,0Zm-25.32,3.2c2.76.63,6.5,1.58,8.26,2.12,3.07.86,3.21.95,2.35,1.58a24.93,24.93,0,0,1-4,1.72c-5.37,1.89-13.18,1.31-16.12-1.27-1.8-1.62-1.94-2.71-.4-4.19s3.43-1.44,9.88.05Z"/></g></g></g></g></svg>